<svg width="168" height="63" viewBox="0 0 168 63" fill="none" xmlns="http://www.w3.org/2000/svg">
<mask id="path-1-outside-1" maskUnits="userSpaceOnUse" x="0" y="1.55884" width="167" height="61" fill="black">
<rect fill="white" y="1.55884" width="167" height="61"/>
<path d="M3 17.8577C5.02863 17.0393 6.9321 16.2805 8.7104 15.5814C10.5058 14.8812 12.3977 14.2092 14.3859 13.5654C16.3731 12.9045 18.2817 12.3604 20.1119 11.9331C21.5182 11.6019 22.9666 11.3884 24.4568 11.2927C26.9406 11.133 28.5723 11.0969 29.352 11.1844C30.5311 11.3322 31.6505 11.6215 32.7102 12.0522C33.787 12.4818 34.755 13.0904 35.614 13.878C36.4891 14.6473 37.2199 15.5808 37.8064 16.6783C38.0417 17.1276 38.1759 17.6092 38.2089 18.1231C38.3322 20.0416 37.4307 22.4732 35.5043 25.4178C33.5951 28.3614 31.6456 30.9464 29.6559 33.1727C27.6832 35.3979 26.2037 36.998 25.2171 37.9731L30.8842 53.8889L24.4644 59.1778L10.5056 26.2506C10.4713 26.2528 10.3191 26.426 10.0488 26.7702C9.7785 27.1144 9.42061 27.5674 8.97511 28.1292C8.54565 28.6729 8.27481 29.0085 8.16261 29.1361C8.11122 29.1394 7.91626 28.7821 7.57771 28.0643C7.25629 27.3453 6.81393 26.3503 6.25063 25.0793C5.70335 23.7901 5.08731 22.3676 4.40251 20.812C3.69948 19.2404 3.23198 18.2556 3 17.8577ZM20.0833 23.9322L22.6775 31.3766C23.6702 30.2292 24.8944 28.6712 26.3503 26.7028C27.8063 24.7344 28.5072 23.3305 28.4533 22.4912C28.4324 22.1657 28.2832 21.9861 28.0058 21.9523C27.224 21.8306 26.4562 21.7939 25.7025 21.8424C23.4414 21.9877 21.5684 22.6843 20.0833 23.9322Z"/>
<path d="M56.3723 8.76725L66.9941 4.55884L66.8594 11.3605L72.5762 5.51988L79.5919 11.6126L69.1178 26.1757L90.0293 42.9159L90.3623 51.2412L69.028 39.098L69.3448 49.2901L59.4704 49.2813L58.3171 13.2244L55.2552 13.8484L56.3723 8.76725Z"/>
<path d="M100.257 13.7225L110.484 13.7603L112.883 18.3589L115.694 12.424L122.306 12.7257L127.538 49.5459L115.581 47.5143L114.263 34.9869L111.56 39.3908L108.761 33.4123L106.984 43.8284L95.2343 43.8493L100.257 13.7225Z"/>
<path d="M148.338 13.4443L151.815 26.7644L152.135 15.015L164 16.9447L159.093 60L151.961 59.6187L147.218 38.3244L145.326 55.1544L136.202 54.2001L139.58 17.3198L136.378 16.1328L136.817 11.2452L148.338 13.4443Z"/>
<path d="M43.8072 53.5468L36.0658 53.9759L35.6539 35.558L33.1135 36.1244L33.9546 31.9018L42.6743 28.2457L43.8072 53.5468ZM38.1771 17.8438C38.9896 17.8438 39.6876 17.9811 40.2712 18.2557C40.8663 18.5189 41.3526 18.8451 41.7303 19.2341C42.1079 19.6118 42.3654 19.9436 42.5027 20.2297C42.64 20.5387 42.7087 20.8762 42.7087 21.2424C42.7087 21.8031 42.5885 22.3753 42.3482 22.9589C42.1079 23.5311 41.8161 24.0231 41.4728 24.4351C41.1295 24.8471 40.8034 25.0874 40.4944 25.156C39.8993 25.2476 39.453 25.2933 39.1555 25.2933C38.4003 25.2933 37.7423 25.1617 37.1816 24.8986C36.6208 24.6354 36.1746 24.252 35.8427 23.7485C35.5108 23.245 35.3049 22.6557 35.2248 21.9805C35.2248 21.0078 35.4594 20.0981 35.9285 19.2513C36.4091 18.4045 37.1587 17.9353 38.1771 17.8438Z"/>
<path d="M59.639 26.9984C60.3713 27.4676 61.0293 28.1198 61.6129 28.9552C62.208 29.7791 62.6657 30.5458 62.9861 31.2553C63.3065 31.9533 63.5182 32.4568 63.6212 32.7658L57.253 34.1733C57.1501 33.6012 56.8468 33.2235 56.3433 33.0404C55.8398 32.8573 55.3134 32.7658 54.7641 32.7658C51.8575 33.0404 50.4043 34.7741 50.4043 37.9668C50.4844 40.4957 51.2797 41.9032 52.7902 42.1893C53.5111 42.1893 54.1634 42.012 54.747 41.6572C55.3306 41.3025 55.8284 40.8333 56.2403 40.2497C56.6637 39.6546 57.0127 38.9909 57.2874 38.2586L63.6555 39.5459C63.5869 39.7748 63.421 40.2325 63.1578 40.9191C62.8602 41.6858 62.1622 42.71 61.0636 43.9916C59.9765 45.2733 58.7636 46.1716 57.4247 46.6865C55.8112 47.3159 54.2091 47.6306 52.6185 47.6306C50.0781 47.6306 47.8238 46.801 45.8556 45.1417C44.963 44.3635 44.3164 43.4595 43.9159 42.4296C43.504 41.3997 43.298 40.3126 43.298 39.1683C43.298 37.9782 43.4639 36.8053 43.7958 35.6495C44.1276 34.4937 44.5339 33.4409 45.0145 32.4912C45.6439 31.2553 46.3362 30.2025 47.0914 29.3328C47.8467 28.4517 48.6363 27.7365 49.4602 27.1872C50.2955 26.6265 51.1481 26.2145 52.0177 25.9513C52.8874 25.6881 53.7628 25.5565 54.644 25.5565C56.452 25.5565 58.117 26.0372 59.639 26.9984Z"/>
<path d="M94.7641 19.2799C95.5765 19.7148 96.2345 20.3041 96.738 21.0479C97.253 21.7803 97.6249 22.6099 97.8537 23.5368C98.094 24.4523 98.2142 25.4078 98.2142 26.4033C98.2142 27.2273 98.1455 28.0226 98.0082 28.7893C97.8823 29.556 97.705 30.2597 97.4761 30.9005C97.2472 31.5414 96.9783 32.0849 96.6694 32.5312C95.9484 33.6069 95.176 34.5338 94.3521 35.3119C93.5282 36.0901 92.6871 36.7194 91.8289 37.2001C90.9706 37.6692 90.1181 38.0125 89.2713 38.2299C88.4359 38.4588 87.6063 38.5732 86.7824 38.5732C85.8097 38.5732 84.8828 38.4188 84.0017 38.1098C83.132 37.8123 82.3882 37.4175 81.7702 36.9254C80.7518 36.0786 79.9565 34.94 79.3843 33.5096C78.8121 32.0678 78.5261 30.5458 78.5261 28.9437C78.5261 26.1859 79.3214 23.9602 80.912 22.2666C82.2737 20.8133 83.6813 19.7205 85.1346 18.9881C86.5878 18.2443 88.0755 17.8724 89.5974 17.8724C90.49 17.8724 91.3482 17.9868 92.1722 18.2157C92.9961 18.4331 93.86 18.7878 94.7641 19.2799ZM93.7513 22.1636C93.5568 23.0333 93.1334 23.8 92.4811 24.4637C91.8403 25.1274 91.2109 25.4593 90.593 25.4593C90.284 25.4593 90.0094 25.3792 89.7691 25.219C89.4258 24.9443 89.2541 24.4637 89.2541 23.7771C89.2541 23.2507 89.4258 22.7301 89.7691 22.2151C90.1238 21.7002 90.6788 21.2939 91.4341 20.9964C90.6788 20.9964 89.9464 21.1394 89.237 21.4255C88.5389 21.7116 87.9381 22.0835 87.4346 22.5412C86.9311 22.9875 86.5249 23.4967 86.2159 24.0689C85.9184 24.6296 85.7696 25.1961 85.7696 25.7682C85.7696 26.8325 86.2617 27.6793 87.2458 28.3086C88.1613 28.8923 89.031 29.1841 89.8549 29.1841C90.6674 29.1841 91.3883 28.9151 92.0177 28.3773C92.647 27.828 93.1277 27.13 93.4595 26.2832C93.7914 25.4249 93.9573 24.5781 93.9573 23.7428C93.9573 23.1706 93.8886 22.6442 93.7513 22.1636Z"/>
<path d="M137.974 28.8007C138.786 29.2355 139.444 29.8249 139.948 30.5687C140.463 31.3011 140.835 32.1307 141.063 33.0576C141.304 33.9731 141.424 34.9286 141.424 35.9241C141.424 36.7481 141.355 37.5434 141.218 38.3101C141.092 39.0768 140.915 39.7805 140.686 40.4213C140.457 41.0622 140.188 41.6057 139.879 42.052C139.158 43.1277 138.386 44.0546 137.562 44.8327C136.738 45.6109 135.897 46.2402 135.039 46.7209C134.18 47.19 133.328 47.5333 132.481 47.7507C131.646 47.9796 130.816 48.094 129.992 48.094C129.019 48.094 128.093 47.9396 127.211 47.6306C126.342 47.3331 125.598 46.9383 124.98 46.4462C123.962 45.5994 123.166 44.4608 122.594 43.0304C122.022 41.5886 121.736 40.0666 121.736 38.4645C121.736 35.7067 122.531 33.481 124.122 31.7874C125.483 30.3341 126.891 29.2413 128.344 28.5089C129.798 27.7651 131.285 27.3932 132.807 27.3932C133.7 27.3932 134.558 27.5076 135.382 27.7365C136.206 27.9539 137.07 28.3086 137.974 28.8007ZM136.961 31.6844C136.767 32.5541 136.343 33.3208 135.691 33.9845C135.05 34.6482 134.421 34.9801 133.803 34.9801C133.494 34.9801 133.219 34.9 132.979 34.7398C132.636 34.4651 132.464 33.9845 132.464 33.2979C132.464 32.7715 132.636 32.2508 132.979 31.7359C133.334 31.221 133.889 30.8147 134.644 30.5172C133.889 30.5172 133.156 30.6602 132.447 30.9463C131.749 31.2324 131.148 31.6043 130.644 32.062C130.141 32.5083 129.735 33.0175 129.426 33.5897C129.128 34.1504 128.979 34.7169 128.979 35.289C128.979 36.3533 129.471 37.2001 130.456 37.8294C131.371 38.413 132.241 38.7048 133.065 38.7048C133.877 38.7048 134.598 38.4359 135.227 37.8981C135.857 37.3488 136.337 36.6508 136.669 35.804C137.001 34.9457 137.167 34.0989 137.167 33.2636C137.167 32.6914 137.098 32.165 136.961 31.6844Z"/>
</mask>
<path d="M3 17.8577C5.02863 17.0393 6.9321 16.2805 8.7104 15.5814C10.5058 14.8812 12.3977 14.2092 14.3859 13.5654C16.3731 12.9045 18.2817 12.3604 20.1119 11.9331C21.5182 11.6019 22.9666 11.3884 24.4568 11.2927C26.9406 11.133 28.5723 11.0969 29.352 11.1844C30.5311 11.3322 31.6505 11.6215 32.7102 12.0522C33.787 12.4818 34.755 13.0904 35.614 13.878C36.4891 14.6473 37.2199 15.5808 37.8064 16.6783C38.0417 17.1276 38.1759 17.6092 38.2089 18.1231C38.3322 20.0416 37.4307 22.4732 35.5043 25.4178C33.5951 28.3614 31.6456 30.9464 29.6559 33.1727C27.6832 35.3979 26.2037 36.998 25.2171 37.9731L30.8842 53.8889L24.4644 59.1778L10.5056 26.2506C10.4713 26.2528 10.3191 26.426 10.0488 26.7702C9.7785 27.1144 9.42061 27.5674 8.97511 28.1292C8.54565 28.6729 8.27481 29.0085 8.16261 29.1361C8.11122 29.1394 7.91626 28.7821 7.57771 28.0643C7.25629 27.3453 6.81393 26.3503 6.25063 25.0793C5.70335 23.7901 5.08731 22.3676 4.40251 20.812C3.69948 19.2404 3.23198 18.2556 3 17.8577ZM20.0833 23.9322L22.6775 31.3766C23.6702 30.2292 24.8944 28.6712 26.3503 26.7028C27.8063 24.7344 28.5072 23.3305 28.4533 22.4912C28.4324 22.1657 28.2832 21.9861 28.0058 21.9523C27.224 21.8306 26.4562 21.7939 25.7025 21.8424C23.4414 21.9877 21.5684 22.6843 20.0833 23.9322Z" fill="#395BA7"/>
<path d="M56.3723 8.76725L66.9941 4.55884L66.8594 11.3605L72.5762 5.51988L79.5919 11.6126L69.1178 26.1757L90.0293 42.9159L90.3623 51.2412L69.028 39.098L69.3448 49.2901L59.4704 49.2813L58.3171 13.2244L55.2552 13.8484L56.3723 8.76725Z" fill="#395BA7"/>
<path d="M100.257 13.7225L110.484 13.7603L112.883 18.3589L115.694 12.424L122.306 12.7257L127.538 49.5459L115.581 47.5143L114.263 34.9869L111.56 39.3908L108.761 33.4123L106.984 43.8284L95.2343 43.8493L100.257 13.7225Z" fill="#395BA7"/>
<path d="M148.338 13.4443L151.815 26.7644L152.135 15.015L164 16.9447L159.093 60L151.961 59.6187L147.218 38.3244L145.326 55.1544L136.202 54.2001L139.58 17.3198L136.378 16.1328L136.817 11.2452L148.338 13.4443Z" fill="#395BA7"/>
<path d="M43.8072 53.5468L36.0658 53.9759L35.6539 35.558L33.1135 36.1244L33.9546 31.9018L42.6743 28.2457L43.8072 53.5468ZM38.1771 17.8438C38.9896 17.8438 39.6876 17.9811 40.2712 18.2557C40.8663 18.5189 41.3526 18.8451 41.7303 19.2341C42.1079 19.6118 42.3654 19.9436 42.5027 20.2297C42.64 20.5387 42.7087 20.8762 42.7087 21.2424C42.7087 21.8031 42.5885 22.3753 42.3482 22.9589C42.1079 23.5311 41.8161 24.0231 41.4728 24.4351C41.1295 24.8471 40.8034 25.0874 40.4944 25.156C39.8993 25.2476 39.453 25.2933 39.1555 25.2933C38.4003 25.2933 37.7423 25.1617 37.1816 24.8986C36.6208 24.6354 36.1746 24.252 35.8427 23.7485C35.5108 23.245 35.3049 22.6557 35.2248 21.9805C35.2248 21.0078 35.4594 20.0981 35.9285 19.2513C36.4091 18.4045 37.1587 17.9353 38.1771 17.8438Z" fill="#395BA7"/>
<path d="M59.639 26.9984C60.3713 27.4676 61.0293 28.1198 61.6129 28.9552C62.208 29.7791 62.6657 30.5458 62.9861 31.2553C63.3065 31.9533 63.5182 32.4568 63.6212 32.7658L57.253 34.1733C57.1501 33.6012 56.8468 33.2235 56.3433 33.0404C55.8398 32.8573 55.3134 32.7658 54.7641 32.7658C51.8575 33.0404 50.4043 34.7741 50.4043 37.9668C50.4844 40.4957 51.2797 41.9032 52.7902 42.1893C53.5111 42.1893 54.1634 42.012 54.747 41.6572C55.3306 41.3025 55.8284 40.8333 56.2403 40.2497C56.6637 39.6546 57.0127 38.9909 57.2874 38.2586L63.6555 39.5459C63.5869 39.7748 63.421 40.2325 63.1578 40.9191C62.8602 41.6858 62.1622 42.71 61.0636 43.9916C59.9765 45.2733 58.7636 46.1716 57.4247 46.6865C55.8112 47.3159 54.2091 47.6306 52.6185 47.6306C50.0781 47.6306 47.8238 46.801 45.8556 45.1417C44.963 44.3635 44.3164 43.4595 43.9159 42.4296C43.504 41.3997 43.298 40.3126 43.298 39.1683C43.298 37.9782 43.4639 36.8053 43.7958 35.6495C44.1276 34.4937 44.5339 33.4409 45.0145 32.4912C45.6439 31.2553 46.3362 30.2025 47.0914 29.3328C47.8467 28.4517 48.6363 27.7365 49.4602 27.1872C50.2955 26.6265 51.1481 26.2145 52.0177 25.9513C52.8874 25.6881 53.7628 25.5565 54.644 25.5565C56.452 25.5565 58.117 26.0372 59.639 26.9984Z" fill="#395BA7"/>
<path d="M94.7641 19.2799C95.5765 19.7148 96.2345 20.3041 96.738 21.0479C97.253 21.7803 97.6249 22.6099 97.8537 23.5368C98.094 24.4523 98.2142 25.4078 98.2142 26.4033C98.2142 27.2273 98.1455 28.0226 98.0082 28.7893C97.8823 29.556 97.705 30.2597 97.4761 30.9005C97.2472 31.5414 96.9783 32.0849 96.6694 32.5312C95.9484 33.6069 95.176 34.5338 94.3521 35.3119C93.5282 36.0901 92.6871 36.7194 91.8289 37.2001C90.9706 37.6692 90.1181 38.0125 89.2713 38.2299C88.4359 38.4588 87.6063 38.5732 86.7824 38.5732C85.8097 38.5732 84.8828 38.4188 84.0017 38.1098C83.132 37.8123 82.3882 37.4175 81.7702 36.9254C80.7518 36.0786 79.9565 34.94 79.3843 33.5096C78.8121 32.0678 78.5261 30.5458 78.5261 28.9437C78.5261 26.1859 79.3214 23.9602 80.912 22.2666C82.2737 20.8133 83.6813 19.7205 85.1346 18.9881C86.5878 18.2443 88.0755 17.8724 89.5974 17.8724C90.49 17.8724 91.3482 17.9868 92.1722 18.2157C92.9961 18.4331 93.86 18.7878 94.7641 19.2799ZM93.7513 22.1636C93.5568 23.0333 93.1334 23.8 92.4811 24.4637C91.8403 25.1274 91.2109 25.4593 90.593 25.4593C90.284 25.4593 90.0094 25.3792 89.7691 25.219C89.4258 24.9443 89.2541 24.4637 89.2541 23.7771C89.2541 23.2507 89.4258 22.7301 89.7691 22.2151C90.1238 21.7002 90.6788 21.2939 91.4341 20.9964C90.6788 20.9964 89.9464 21.1394 89.237 21.4255C88.5389 21.7116 87.9381 22.0835 87.4346 22.5412C86.9311 22.9875 86.5249 23.4967 86.2159 24.0689C85.9184 24.6296 85.7696 25.1961 85.7696 25.7682C85.7696 26.8325 86.2617 27.6793 87.2458 28.3086C88.1613 28.8923 89.031 29.1841 89.8549 29.1841C90.6674 29.1841 91.3883 28.9151 92.0177 28.3773C92.647 27.828 93.1277 27.13 93.4595 26.2832C93.7914 25.4249 93.9573 24.5781 93.9573 23.7428C93.9573 23.1706 93.8886 22.6442 93.7513 22.1636Z" fill="#395BA7"/>
<path d="M137.974 28.8007C138.786 29.2355 139.444 29.8249 139.948 30.5687C140.463 31.3011 140.835 32.1307 141.063 33.0576C141.304 33.9731 141.424 34.9286 141.424 35.9241C141.424 36.7481 141.355 37.5434 141.218 38.3101C141.092 39.0768 140.915 39.7805 140.686 40.4213C140.457 41.0622 140.188 41.6057 139.879 42.052C139.158 43.1277 138.386 44.0546 137.562 44.8327C136.738 45.6109 135.897 46.2402 135.039 46.7209C134.18 47.19 133.328 47.5333 132.481 47.7507C131.646 47.9796 130.816 48.094 129.992 48.094C129.019 48.094 128.093 47.9396 127.211 47.6306C126.342 47.3331 125.598 46.9383 124.98 46.4462C123.962 45.5994 123.166 44.4608 122.594 43.0304C122.022 41.5886 121.736 40.0666 121.736 38.4645C121.736 35.7067 122.531 33.481 124.122 31.7874C125.483 30.3341 126.891 29.2413 128.344 28.5089C129.798 27.7651 131.285 27.3932 132.807 27.3932C133.7 27.3932 134.558 27.5076 135.382 27.7365C136.206 27.9539 137.07 28.3086 137.974 28.8007ZM136.961 31.6844C136.767 32.5541 136.343 33.3208 135.691 33.9845C135.05 34.6482 134.421 34.9801 133.803 34.9801C133.494 34.9801 133.219 34.9 132.979 34.7398C132.636 34.4651 132.464 33.9845 132.464 33.2979C132.464 32.7715 132.636 32.2508 132.979 31.7359C133.334 31.221 133.889 30.8147 134.644 30.5172C133.889 30.5172 133.156 30.6602 132.447 30.9463C131.749 31.2324 131.148 31.6043 130.644 32.062C130.141 32.5083 129.735 33.0175 129.426 33.5897C129.128 34.1504 128.979 34.7169 128.979 35.289C128.979 36.3533 129.471 37.2001 130.456 37.8294C131.371 38.413 132.241 38.7048 133.065 38.7048C133.877 38.7048 134.598 38.4359 135.227 37.8981C135.857 37.3488 136.337 36.6508 136.669 35.804C137.001 34.9457 137.167 34.0989 137.167 33.2636C137.167 32.6914 137.098 32.165 136.961 31.6844Z" fill="#395BA7"/>
<path d="M3 17.8577C5.02863 17.0393 6.9321 16.2805 8.7104 15.5814C10.5058 14.8812 12.3977 14.2092 14.3859 13.5654C16.3731 12.9045 18.2817 12.3604 20.1119 11.9331C21.5182 11.6019 22.9666 11.3884 24.4568 11.2927C26.9406 11.133 28.5723 11.0969 29.352 11.1844C30.5311 11.3322 31.6505 11.6215 32.7102 12.0522C33.787 12.4818 34.755 13.0904 35.614 13.878C36.4891 14.6473 37.2199 15.5808 37.8064 16.6783C38.0417 17.1276 38.1759 17.6092 38.2089 18.1231C38.3322 20.0416 37.4307 22.4732 35.5043 25.4178C33.5951 28.3614 31.6456 30.9464 29.6559 33.1727C27.6832 35.3979 26.2037 36.998 25.2171 37.9731L30.8842 53.8889L24.4644 59.1778L10.5056 26.2506C10.4713 26.2528 10.3191 26.426 10.0488 26.7702C9.7785 27.1144 9.42061 27.5674 8.97511 28.1292C8.54565 28.6729 8.27481 29.0085 8.16261 29.1361C8.11122 29.1394 7.91626 28.7821 7.57771 28.0643C7.25629 27.3453 6.81393 26.3503 6.25063 25.0793C5.70335 23.7901 5.08731 22.3676 4.40251 20.812C3.69948 19.2404 3.23198 18.2556 3 17.8577ZM20.0833 23.9322L22.6775 31.3766C23.6702 30.2292 24.8944 28.6712 26.3503 26.7028C27.8063 24.7344 28.5072 23.3305 28.4533 22.4912C28.4324 22.1657 28.2832 21.9861 28.0058 21.9523C27.224 21.8306 26.4562 21.7939 25.7025 21.8424C23.4414 21.9877 21.5684 22.6843 20.0833 23.9322Z" stroke="#395BA7" stroke-width="4" mask="url(#path-1-outside-1)"/>
<path d="M56.3723 8.76725L66.9941 4.55884L66.8594 11.3605L72.5762 5.51988L79.5919 11.6126L69.1178 26.1757L90.0293 42.9159L90.3623 51.2412L69.028 39.098L69.3448 49.2901L59.4704 49.2813L58.3171 13.2244L55.2552 13.8484L56.3723 8.76725Z" stroke="#395BA7" stroke-width="4" mask="url(#path-1-outside-1)"/>
<path d="M100.257 13.7225L110.484 13.7603L112.883 18.3589L115.694 12.424L122.306 12.7257L127.538 49.5459L115.581 47.5143L114.263 34.9869L111.56 39.3908L108.761 33.4123L106.984 43.8284L95.2343 43.8493L100.257 13.7225Z" stroke="#395BA7" stroke-width="4" mask="url(#path-1-outside-1)"/>
<path d="M148.338 13.4443L151.815 26.7644L152.135 15.015L164 16.9447L159.093 60L151.961 59.6187L147.218 38.3244L145.326 55.1544L136.202 54.2001L139.58 17.3198L136.378 16.1328L136.817 11.2452L148.338 13.4443Z" stroke="#395BA7" stroke-width="4" mask="url(#path-1-outside-1)"/>
<path d="M43.8072 53.5468L36.0658 53.9759L35.6539 35.558L33.1135 36.1244L33.9546 31.9018L42.6743 28.2457L43.8072 53.5468ZM38.1771 17.8438C38.9896 17.8438 39.6876 17.9811 40.2712 18.2557C40.8663 18.5189 41.3526 18.8451 41.7303 19.2341C42.1079 19.6118 42.3654 19.9436 42.5027 20.2297C42.64 20.5387 42.7087 20.8762 42.7087 21.2424C42.7087 21.8031 42.5885 22.3753 42.3482 22.9589C42.1079 23.5311 41.8161 24.0231 41.4728 24.4351C41.1295 24.8471 40.8034 25.0874 40.4944 25.156C39.8993 25.2476 39.453 25.2933 39.1555 25.2933C38.4003 25.2933 37.7423 25.1617 37.1816 24.8986C36.6208 24.6354 36.1746 24.252 35.8427 23.7485C35.5108 23.245 35.3049 22.6557 35.2248 21.9805C35.2248 21.0078 35.4594 20.0981 35.9285 19.2513C36.4091 18.4045 37.1587 17.9353 38.1771 17.8438Z" stroke="#395BA7" stroke-width="4" mask="url(#path-1-outside-1)"/>
<path d="M59.639 26.9984C60.3713 27.4676 61.0293 28.1198 61.6129 28.9552C62.208 29.7791 62.6657 30.5458 62.9861 31.2553C63.3065 31.9533 63.5182 32.4568 63.6212 32.7658L57.253 34.1733C57.1501 33.6012 56.8468 33.2235 56.3433 33.0404C55.8398 32.8573 55.3134 32.7658 54.7641 32.7658C51.8575 33.0404 50.4043 34.7741 50.4043 37.9668C50.4844 40.4957 51.2797 41.9032 52.7902 42.1893C53.5111 42.1893 54.1634 42.012 54.747 41.6572C55.3306 41.3025 55.8284 40.8333 56.2403 40.2497C56.6637 39.6546 57.0127 38.9909 57.2874 38.2586L63.6555 39.5459C63.5869 39.7748 63.421 40.2325 63.1578 40.9191C62.8602 41.6858 62.1622 42.71 61.0636 43.9916C59.9765 45.2733 58.7636 46.1716 57.4247 46.6865C55.8112 47.3159 54.2091 47.6306 52.6185 47.6306C50.0781 47.6306 47.8238 46.801 45.8556 45.1417C44.963 44.3635 44.3164 43.4595 43.9159 42.4296C43.504 41.3997 43.298 40.3126 43.298 39.1683C43.298 37.9782 43.4639 36.8053 43.7958 35.6495C44.1276 34.4937 44.5339 33.4409 45.0145 32.4912C45.6439 31.2553 46.3362 30.2025 47.0914 29.3328C47.8467 28.4517 48.6363 27.7365 49.4602 27.1872C50.2955 26.6265 51.1481 26.2145 52.0177 25.9513C52.8874 25.6881 53.7628 25.5565 54.644 25.5565C56.452 25.5565 58.117 26.0372 59.639 26.9984Z" stroke="#395BA7" stroke-width="4" mask="url(#path-1-outside-1)"/>
<path d="M94.7641 19.2799C95.5765 19.7148 96.2345 20.3041 96.738 21.0479C97.253 21.7803 97.6249 22.6099 97.8537 23.5368C98.094 24.4523 98.2142 25.4078 98.2142 26.4033C98.2142 27.2273 98.1455 28.0226 98.0082 28.7893C97.8823 29.556 97.705 30.2597 97.4761 30.9005C97.2472 31.5414 96.9783 32.0849 96.6694 32.5312C95.9484 33.6069 95.176 34.5338 94.3521 35.3119C93.5282 36.0901 92.6871 36.7194 91.8289 37.2001C90.9706 37.6692 90.1181 38.0125 89.2713 38.2299C88.4359 38.4588 87.6063 38.5732 86.7824 38.5732C85.8097 38.5732 84.8828 38.4188 84.0017 38.1098C83.132 37.8123 82.3882 37.4175 81.7702 36.9254C80.7518 36.0786 79.9565 34.94 79.3843 33.5096C78.8121 32.0678 78.5261 30.5458 78.5261 28.9437C78.5261 26.1859 79.3214 23.9602 80.912 22.2666C82.2737 20.8133 83.6813 19.7205 85.1346 18.9881C86.5878 18.2443 88.0755 17.8724 89.5974 17.8724C90.49 17.8724 91.3482 17.9868 92.1722 18.2157C92.9961 18.4331 93.86 18.7878 94.7641 19.2799ZM93.7513 22.1636C93.5568 23.0333 93.1334 23.8 92.4811 24.4637C91.8403 25.1274 91.2109 25.4593 90.593 25.4593C90.284 25.4593 90.0094 25.3792 89.7691 25.219C89.4258 24.9443 89.2541 24.4637 89.2541 23.7771C89.2541 23.2507 89.4258 22.7301 89.7691 22.2151C90.1238 21.7002 90.6788 21.2939 91.4341 20.9964C90.6788 20.9964 89.9464 21.1394 89.237 21.4255C88.5389 21.7116 87.9381 22.0835 87.4346 22.5412C86.9311 22.9875 86.5249 23.4967 86.2159 24.0689C85.9184 24.6296 85.7696 25.1961 85.7696 25.7682C85.7696 26.8325 86.2617 27.6793 87.2458 28.3086C88.1613 28.8923 89.031 29.1841 89.8549 29.1841C90.6674 29.1841 91.3883 28.9151 92.0177 28.3773C92.647 27.828 93.1277 27.13 93.4595 26.2832C93.7914 25.4249 93.9573 24.5781 93.9573 23.7428C93.9573 23.1706 93.8886 22.6442 93.7513 22.1636Z" stroke="#395BA7" stroke-width="4" mask="url(#path-1-outside-1)"/>
<path d="M137.974 28.8007C138.786 29.2355 139.444 29.8249 139.948 30.5687C140.463 31.3011 140.835 32.1307 141.063 33.0576C141.304 33.9731 141.424 34.9286 141.424 35.9241C141.424 36.7481 141.355 37.5434 141.218 38.3101C141.092 39.0768 140.915 39.7805 140.686 40.4213C140.457 41.0622 140.188 41.6057 139.879 42.052C139.158 43.1277 138.386 44.0546 137.562 44.8327C136.738 45.6109 135.897 46.2402 135.039 46.7209C134.18 47.19 133.328 47.5333 132.481 47.7507C131.646 47.9796 130.816 48.094 129.992 48.094C129.019 48.094 128.093 47.9396 127.211 47.6306C126.342 47.3331 125.598 46.9383 124.98 46.4462C123.962 45.5994 123.166 44.4608 122.594 43.0304C122.022 41.5886 121.736 40.0666 121.736 38.4645C121.736 35.7067 122.531 33.481 124.122 31.7874C125.483 30.3341 126.891 29.2413 128.344 28.5089C129.798 27.7651 131.285 27.3932 132.807 27.3932C133.7 27.3932 134.558 27.5076 135.382 27.7365C136.206 27.9539 137.07 28.3086 137.974 28.8007ZM136.961 31.6844C136.767 32.5541 136.343 33.3208 135.691 33.9845C135.05 34.6482 134.421 34.9801 133.803 34.9801C133.494 34.9801 133.219 34.9 132.979 34.7398C132.636 34.4651 132.464 33.9845 132.464 33.2979C132.464 32.7715 132.636 32.2508 132.979 31.7359C133.334 31.221 133.889 30.8147 134.644 30.5172C133.889 30.5172 133.156 30.6602 132.447 30.9463C131.749 31.2324 131.148 31.6043 130.644 32.062C130.141 32.5083 129.735 33.0175 129.426 33.5897C129.128 34.1504 128.979 34.7169 128.979 35.289C128.979 36.3533 129.471 37.2001 130.456 37.8294C131.371 38.413 132.241 38.7048 133.065 38.7048C133.877 38.7048 134.598 38.4359 135.227 37.8981C135.857 37.3488 136.337 36.6508 136.669 35.804C137.001 34.9457 137.167 34.0989 137.167 33.2636C137.167 32.6914 137.098 32.165 136.961 31.6844Z" stroke="#395BA7" stroke-width="4" mask="url(#path-1-outside-1)"/>
<mask id="path-2-outside-2" maskUnits="userSpaceOnUse" x="1.46475" y="0.0940857" width="167" height="61" fill="black">
<rect fill="white" x="1.46475" y="0.0940857" width="167" height="61"/>
<path d="M4.46475 16.393C6.49339 15.5746 8.39685 14.8158 10.1751 14.1167C11.9706 13.4165 13.8624 12.7445 15.8507 12.1007C17.8378 11.4397 19.7465 10.8956 21.5767 10.4684C22.983 10.1372 24.4313 9.92369 25.9216 9.8279C28.4054 9.66825 30.0371 9.63217 30.8167 9.71966C31.9958 9.86748 33.1152 10.1567 34.1749 10.5874C35.2518 11.017 36.2197 11.6256 37.0787 12.4132C37.9538 13.1826 38.6846 14.116 39.2712 15.2136C39.5065 15.6628 39.6406 16.1444 39.6736 16.6583C39.797 18.5768 38.8954 21.0084 36.9691 23.9531C35.0598 26.8967 33.1103 29.4816 31.1206 31.7079C29.148 33.9332 27.6684 35.5333 26.6819 36.5083L32.349 52.4242L25.9292 57.7131L11.9703 24.7859C11.9361 24.7881 11.7838 24.9613 11.5135 25.3055C11.2432 25.6496 10.8854 26.1027 10.4399 26.6645C10.0104 27.2081 9.73956 27.5437 9.62736 27.6713C9.57598 27.6746 9.38101 27.3174 9.04246 26.5995C8.72105 25.8806 8.27869 24.8856 7.71538 23.6146C7.1681 22.3253 6.55207 20.9029 5.86727 19.3473C5.16424 17.7756 4.69673 16.7909 4.46475 16.393ZM21.5481 22.4674L24.1422 29.9118C25.1349 28.7644 26.3592 27.2065 27.8151 25.2381C29.271 23.2697 29.972 21.8658 29.918 21.0264C29.8971 20.701 29.748 20.5214 29.4706 20.4876C28.6887 20.3658 27.921 20.3292 27.1673 20.3776C24.9062 20.523 23.0331 21.2196 21.5481 22.4674Z"/>
<path d="M57.8371 7.3025L68.4588 3.09409L68.3242 9.89577L74.041 4.05513L81.0566 10.1478L70.5826 24.7109L91.494 41.4512L91.8271 49.7765L70.4927 37.6332L70.8096 47.8253L60.9351 47.8165L59.7819 11.7597L56.72 12.3837L57.8371 7.3025Z"/>
<path d="M101.722 12.2578L111.949 12.2956L114.347 16.8942L117.159 10.9593L123.77 11.2609L129.003 48.0811L117.045 46.0495L115.728 33.5222L113.025 37.9261L110.225 31.9475L108.448 42.3637L96.6991 42.3845L101.722 12.2578Z"/>
<path d="M149.803 11.9795L153.279 25.2997L153.6 13.5502L165.465 15.48L160.558 58.5353L153.426 58.154L148.683 36.8596L146.791 53.6897L137.667 52.7353L141.045 15.8551L137.843 14.668L138.282 9.7804L149.803 11.9795Z"/>
<path d="M45.272 52.082L37.5306 52.5111L37.1186 34.0932L34.5782 34.6596L35.4193 30.4371L44.1391 26.781L45.272 52.082ZM39.6419 16.379C40.4543 16.379 41.1524 16.5163 41.736 16.791C42.331 17.0542 42.8174 17.3803 43.195 17.7694C43.5726 18.147 43.8301 18.4789 43.9674 18.7649C44.1048 19.0739 44.1734 19.4115 44.1734 19.7777C44.1734 20.3384 44.0533 20.9106 43.8129 21.4942C43.5726 22.0663 43.2808 22.5584 42.9375 22.9703C42.5942 23.3823 42.2681 23.6226 41.9591 23.6913C41.3641 23.7828 40.9178 23.8286 40.6203 23.8286C39.865 23.8286 39.207 23.697 38.6463 23.4338C38.0856 23.1706 37.6393 22.7873 37.3075 22.2838C36.9756 21.7802 36.7696 21.1909 36.6895 20.5158C36.6895 19.5431 36.9241 18.6333 37.3933 17.7865C37.8739 16.9397 38.6234 16.4706 39.6419 16.379Z"/>
<path d="M61.1037 25.5336C61.8361 26.0028 62.4941 26.6551 63.0777 27.4904C63.6727 28.3144 64.1305 29.081 64.4509 29.7905C64.7713 30.4886 64.983 30.9921 65.086 31.301L58.7178 32.7086C58.6148 32.1364 58.3116 31.7588 57.8081 31.5757C57.3046 31.3926 56.7782 31.301 56.2289 31.301C53.3223 31.5757 51.869 33.3093 51.869 36.502C51.9491 39.031 52.7444 40.4385 54.2549 40.7246C54.9758 40.7246 55.6281 40.5472 56.2117 40.1925C56.7953 39.8377 57.2931 39.3685 57.7051 38.7849C58.1285 38.1899 58.4775 37.5262 58.7521 36.7938L65.1203 38.0812C65.0516 38.31 64.8857 38.7678 64.6225 39.4544C64.325 40.2211 63.627 41.2452 62.5284 42.5269C61.4413 43.8085 60.2283 44.7068 58.8894 45.2218C57.2759 45.8512 55.6739 46.1658 54.0833 46.1658C51.5429 46.1658 49.2885 45.3362 47.3203 43.6769C46.4277 42.8988 45.7812 41.9948 45.3807 40.9649C44.9687 39.935 44.7627 38.8479 44.7627 37.7035C44.7627 36.5134 44.9287 35.3405 45.2605 34.1847C45.5924 33.029 45.9986 31.9762 46.4792 31.0264C47.1086 29.7905 47.8009 28.7378 48.5562 27.8681C49.3114 26.9869 50.101 26.2717 50.9249 25.7225C51.7603 25.1617 52.6128 24.7498 53.4825 24.4866C54.3522 24.2234 55.2276 24.0918 56.1087 24.0918C57.9168 24.0918 59.5818 24.5724 61.1037 25.5336Z"/>
<path d="M96.2288 17.8152C97.0413 18.25 97.6993 18.8393 98.2028 19.5831C98.7177 20.3155 99.0896 21.1451 99.3185 22.0721C99.5588 22.9875 99.6789 23.943 99.6789 24.9386C99.6789 25.7625 99.6103 26.5578 99.473 27.3245C99.3471 28.0912 99.1697 28.795 98.9408 29.4358C98.712 30.0766 98.4431 30.6202 98.1341 31.0665C97.4132 32.1421 96.6408 33.069 95.8168 33.8472C94.9929 34.6253 94.1519 35.2547 93.2936 35.7353C92.4354 36.2045 91.5828 36.5478 90.736 36.7652C89.9007 36.9941 89.071 37.1085 88.2471 37.1085C87.2745 37.1085 86.3475 36.954 85.4664 36.645C84.5967 36.3475 83.8529 35.9527 83.235 35.4607C82.2165 34.6139 81.4212 33.4753 80.8491 32.0449C80.2769 30.603 79.9908 29.081 79.9908 27.479C79.9908 24.7212 80.7861 22.4955 82.3767 20.8018C83.7385 19.3486 85.146 18.2557 86.5993 17.5234C88.0526 16.7795 89.5402 16.4076 91.0622 16.4076C91.9548 16.4076 92.813 16.5221 93.6369 16.7509C94.4608 16.9684 95.3248 17.3231 96.2288 17.8152ZM95.2161 20.6989C95.0215 21.5685 94.5981 22.3352 93.9459 22.999C93.3051 23.6627 92.6757 23.9945 92.0577 23.9945C91.7488 23.9945 91.4741 23.9144 91.2338 23.7542C90.8905 23.4796 90.7189 22.999 90.7189 22.3124C90.7189 21.786 90.8905 21.2653 91.2338 20.7504C91.5886 20.2354 92.1436 19.8292 92.8988 19.5316C92.1436 19.5316 91.4112 19.6747 90.7017 19.9608C90.0037 20.2468 89.4029 20.6188 88.8994 21.0765C88.3959 21.5228 87.9897 22.032 87.6807 22.6042C87.3832 23.1649 87.2344 23.7313 87.2344 24.3035C87.2344 25.3677 87.7265 26.2145 88.7106 26.8439C89.626 27.4275 90.4957 27.7193 91.3196 27.7193C92.1321 27.7193 92.853 27.4504 93.4824 26.9126C94.1118 26.3633 94.5924 25.6652 94.9243 24.8184C95.2561 23.9602 95.4221 23.1134 95.4221 22.278C95.4221 21.7059 95.3534 21.1795 95.2161 20.6989Z"/>
<path d="M139.439 27.336C140.251 27.7708 140.909 28.3601 141.413 29.1039C141.927 29.8363 142.299 30.6659 142.528 31.5928C142.769 32.5083 142.889 33.4638 142.889 34.4594C142.889 35.2833 142.82 36.0786 142.683 36.8453C142.557 37.612 142.379 38.3158 142.151 38.9566C141.922 39.5974 141.653 40.141 141.344 40.5872C140.623 41.6629 139.851 42.5898 139.027 43.368C138.203 44.1461 137.362 44.7755 136.503 45.2561C135.645 45.7253 134.793 46.0686 133.946 46.286C133.11 46.5149 132.281 46.6293 131.457 46.6293C130.484 46.6293 129.557 46.4748 128.676 46.1658C127.806 45.8683 127.063 45.4735 126.445 44.9815C125.426 44.1347 124.631 42.9961 124.059 41.5656C123.487 40.1238 123.201 38.6018 123.201 36.9998C123.201 34.242 123.996 32.0162 125.586 30.3226C126.948 28.8693 128.356 27.7765 129.809 27.0441C131.262 26.3003 132.75 25.9284 134.272 25.9284C135.164 25.9284 136.023 26.0429 136.847 26.2717C137.671 26.4891 138.535 26.8439 139.439 27.336ZM138.426 30.2197C138.231 31.0893 137.808 31.856 137.156 32.5197C136.515 33.1835 135.885 33.5153 135.267 33.5153C134.959 33.5153 134.684 33.4352 134.444 33.275C134.1 33.0004 133.929 32.5197 133.929 31.8332C133.929 31.3068 134.1 30.7861 134.444 30.2711C134.798 29.7562 135.353 29.35 136.109 29.0524C135.353 29.0524 134.621 29.1955 133.911 29.4816C133.213 29.7676 132.613 30.1396 132.109 30.5973C131.606 31.0436 131.199 31.5528 130.89 32.125C130.593 32.6857 130.444 33.2521 130.444 33.8243C130.444 34.8885 130.936 35.7353 131.92 36.3647C132.836 36.9483 133.705 37.2401 134.529 37.2401C135.342 37.2401 136.063 36.9712 136.692 36.4333C137.322 35.8841 137.802 35.186 138.134 34.3392C138.466 33.481 138.632 32.6342 138.632 31.7988C138.632 31.2267 138.563 30.7003 138.426 30.2197Z"/>
</mask>
<path d="M4.46475 16.393C6.49339 15.5746 8.39685 14.8158 10.1751 14.1167C11.9706 13.4165 13.8624 12.7445 15.8507 12.1007C17.8378 11.4397 19.7465 10.8956 21.5767 10.4684C22.983 10.1372 24.4313 9.92369 25.9216 9.8279C28.4054 9.66825 30.0371 9.63217 30.8167 9.71966C31.9958 9.86748 33.1152 10.1567 34.1749 10.5874C35.2518 11.017 36.2197 11.6256 37.0787 12.4132C37.9538 13.1826 38.6846 14.116 39.2712 15.2136C39.5065 15.6628 39.6406 16.1444 39.6736 16.6583C39.797 18.5768 38.8954 21.0084 36.9691 23.9531C35.0598 26.8967 33.1103 29.4816 31.1206 31.7079C29.148 33.9332 27.6684 35.5333 26.6819 36.5083L32.349 52.4242L25.9292 57.7131L11.9703 24.7859C11.9361 24.7881 11.7838 24.9613 11.5135 25.3055C11.2432 25.6496 10.8854 26.1027 10.4399 26.6645C10.0104 27.2081 9.73956 27.5437 9.62736 27.6713C9.57598 27.6746 9.38101 27.3174 9.04246 26.5995C8.72105 25.8806 8.27869 24.8856 7.71538 23.6146C7.1681 22.3253 6.55207 20.9029 5.86727 19.3473C5.16424 17.7756 4.69673 16.7909 4.46475 16.393ZM21.5481 22.4674L24.1422 29.9118C25.1349 28.7644 26.3592 27.2065 27.8151 25.2381C29.271 23.2697 29.972 21.8658 29.918 21.0264C29.8971 20.701 29.748 20.5214 29.4706 20.4876C28.6887 20.3658 27.921 20.3292 27.1673 20.3776C24.9062 20.523 23.0331 21.2196 21.5481 22.4674Z" fill="#FFCC01"/>
<path d="M57.8371 7.3025L68.4588 3.09409L68.3242 9.89577L74.041 4.05513L81.0566 10.1478L70.5826 24.7109L91.494 41.4512L91.8271 49.7765L70.4927 37.6332L70.8096 47.8253L60.9351 47.8165L59.7819 11.7597L56.72 12.3837L57.8371 7.3025Z" fill="#FFCC01"/>
<path d="M101.722 12.2578L111.949 12.2956L114.347 16.8942L117.159 10.9593L123.77 11.2609L129.003 48.0811L117.045 46.0495L115.728 33.5222L113.025 37.9261L110.225 31.9475L108.448 42.3637L96.6991 42.3845L101.722 12.2578Z" fill="#FFCC01"/>
<path d="M149.803 11.9795L153.279 25.2997L153.6 13.5502L165.465 15.48L160.558 58.5353L153.426 58.154L148.683 36.8596L146.791 53.6897L137.667 52.7353L141.045 15.8551L137.843 14.668L138.282 9.7804L149.803 11.9795Z" fill="#FFCC01"/>
<path d="M45.272 52.082L37.5306 52.5111L37.1186 34.0932L34.5782 34.6596L35.4193 30.4371L44.1391 26.781L45.272 52.082ZM39.6419 16.379C40.4543 16.379 41.1524 16.5163 41.736 16.791C42.331 17.0542 42.8174 17.3803 43.195 17.7694C43.5726 18.147 43.8301 18.4789 43.9674 18.7649C44.1048 19.0739 44.1734 19.4115 44.1734 19.7777C44.1734 20.3384 44.0533 20.9106 43.8129 21.4942C43.5726 22.0663 43.2808 22.5584 42.9375 22.9703C42.5942 23.3823 42.2681 23.6226 41.9591 23.6913C41.3641 23.7828 40.9178 23.8286 40.6203 23.8286C39.865 23.8286 39.207 23.697 38.6463 23.4338C38.0856 23.1706 37.6393 22.7873 37.3075 22.2838C36.9756 21.7802 36.7696 21.1909 36.6895 20.5158C36.6895 19.5431 36.9241 18.6333 37.3933 17.7865C37.8739 16.9397 38.6234 16.4706 39.6419 16.379Z" fill="#FFCC01"/>
<path d="M61.1037 25.5336C61.8361 26.0028 62.4941 26.6551 63.0777 27.4904C63.6727 28.3144 64.1305 29.081 64.4509 29.7905C64.7713 30.4886 64.983 30.9921 65.086 31.301L58.7178 32.7086C58.6148 32.1364 58.3116 31.7588 57.8081 31.5757C57.3046 31.3926 56.7782 31.301 56.2289 31.301C53.3223 31.5757 51.869 33.3093 51.869 36.502C51.9491 39.031 52.7444 40.4385 54.2549 40.7246C54.9758 40.7246 55.6281 40.5472 56.2117 40.1925C56.7953 39.8377 57.2931 39.3685 57.7051 38.7849C58.1285 38.1899 58.4775 37.5262 58.7521 36.7938L65.1203 38.0812C65.0516 38.31 64.8857 38.7678 64.6225 39.4544C64.325 40.2211 63.627 41.2452 62.5284 42.5269C61.4413 43.8085 60.2283 44.7068 58.8894 45.2218C57.2759 45.8512 55.6739 46.1658 54.0833 46.1658C51.5429 46.1658 49.2885 45.3362 47.3203 43.6769C46.4277 42.8988 45.7812 41.9948 45.3807 40.9649C44.9687 39.935 44.7627 38.8479 44.7627 37.7035C44.7627 36.5134 44.9287 35.3405 45.2605 34.1847C45.5924 33.029 45.9986 31.9762 46.4792 31.0264C47.1086 29.7905 47.8009 28.7378 48.5562 27.8681C49.3114 26.9869 50.101 26.2717 50.9249 25.7225C51.7603 25.1617 52.6128 24.7498 53.4825 24.4866C54.3522 24.2234 55.2276 24.0918 56.1087 24.0918C57.9168 24.0918 59.5818 24.5724 61.1037 25.5336Z" fill="#FFCC01"/>
<path d="M96.2288 17.8152C97.0413 18.25 97.6993 18.8393 98.2028 19.5831C98.7177 20.3155 99.0896 21.1451 99.3185 22.0721C99.5588 22.9875 99.6789 23.943 99.6789 24.9386C99.6789 25.7625 99.6103 26.5578 99.473 27.3245C99.3471 28.0912 99.1697 28.795 98.9408 29.4358C98.712 30.0766 98.4431 30.6202 98.1341 31.0665C97.4132 32.1421 96.6408 33.069 95.8168 33.8472C94.9929 34.6253 94.1519 35.2547 93.2936 35.7353C92.4354 36.2045 91.5828 36.5478 90.736 36.7652C89.9007 36.9941 89.071 37.1085 88.2471 37.1085C87.2745 37.1085 86.3475 36.954 85.4664 36.645C84.5967 36.3475 83.8529 35.9527 83.235 35.4607C82.2165 34.6139 81.4212 33.4753 80.8491 32.0449C80.2769 30.603 79.9908 29.081 79.9908 27.479C79.9908 24.7212 80.7861 22.4955 82.3767 20.8018C83.7385 19.3486 85.146 18.2557 86.5993 17.5234C88.0526 16.7795 89.5402 16.4076 91.0622 16.4076C91.9548 16.4076 92.813 16.5221 93.6369 16.7509C94.4608 16.9684 95.3248 17.3231 96.2288 17.8152ZM95.2161 20.6989C95.0215 21.5685 94.5981 22.3352 93.9459 22.999C93.3051 23.6627 92.6757 23.9945 92.0577 23.9945C91.7488 23.9945 91.4741 23.9144 91.2338 23.7542C90.8905 23.4796 90.7189 22.999 90.7189 22.3124C90.7189 21.786 90.8905 21.2653 91.2338 20.7504C91.5886 20.2354 92.1436 19.8292 92.8988 19.5316C92.1436 19.5316 91.4112 19.6747 90.7017 19.9608C90.0037 20.2468 89.4029 20.6188 88.8994 21.0765C88.3959 21.5228 87.9897 22.032 87.6807 22.6042C87.3832 23.1649 87.2344 23.7313 87.2344 24.3035C87.2344 25.3677 87.7265 26.2145 88.7106 26.8439C89.626 27.4275 90.4957 27.7193 91.3196 27.7193C92.1321 27.7193 92.853 27.4504 93.4824 26.9126C94.1118 26.3633 94.5924 25.6652 94.9243 24.8184C95.2561 23.9602 95.4221 23.1134 95.4221 22.278C95.4221 21.7059 95.3534 21.1795 95.2161 20.6989Z" fill="#FFCC01"/>
<path d="M139.439 27.336C140.251 27.7708 140.909 28.3601 141.413 29.1039C141.927 29.8363 142.299 30.6659 142.528 31.5928C142.769 32.5083 142.889 33.4638 142.889 34.4594C142.889 35.2833 142.82 36.0786 142.683 36.8453C142.557 37.612 142.379 38.3158 142.151 38.9566C141.922 39.5974 141.653 40.141 141.344 40.5872C140.623 41.6629 139.851 42.5898 139.027 43.368C138.203 44.1461 137.362 44.7755 136.503 45.2561C135.645 45.7253 134.793 46.0686 133.946 46.286C133.11 46.5149 132.281 46.6293 131.457 46.6293C130.484 46.6293 129.557 46.4748 128.676 46.1658C127.806 45.8683 127.063 45.4735 126.445 44.9815C125.426 44.1347 124.631 42.9961 124.059 41.5656C123.487 40.1238 123.201 38.6018 123.201 36.9998C123.201 34.242 123.996 32.0162 125.586 30.3226C126.948 28.8693 128.356 27.7765 129.809 27.0441C131.262 26.3003 132.75 25.9284 134.272 25.9284C135.164 25.9284 136.023 26.0429 136.847 26.2717C137.671 26.4891 138.535 26.8439 139.439 27.336ZM138.426 30.2197C138.231 31.0893 137.808 31.856 137.156 32.5197C136.515 33.1835 135.885 33.5153 135.267 33.5153C134.959 33.5153 134.684 33.4352 134.444 33.275C134.1 33.0004 133.929 32.5197 133.929 31.8332C133.929 31.3068 134.1 30.7861 134.444 30.2711C134.798 29.7562 135.353 29.35 136.109 29.0524C135.353 29.0524 134.621 29.1955 133.911 29.4816C133.213 29.7676 132.613 30.1396 132.109 30.5973C131.606 31.0436 131.199 31.5528 130.89 32.125C130.593 32.6857 130.444 33.2521 130.444 33.8243C130.444 34.8885 130.936 35.7353 131.92 36.3647C132.836 36.9483 133.705 37.2401 134.529 37.2401C135.342 37.2401 136.063 36.9712 136.692 36.4333C137.322 35.8841 137.802 35.186 138.134 34.3392C138.466 33.481 138.632 32.6342 138.632 31.7988C138.632 31.2267 138.563 30.7003 138.426 30.2197Z" fill="#FFCC01"/>
<path d="M4.46475 16.393C6.49339 15.5746 8.39685 14.8158 10.1751 14.1167C11.9706 13.4165 13.8624 12.7445 15.8507 12.1007C17.8378 11.4397 19.7465 10.8956 21.5767 10.4684C22.983 10.1372 24.4313 9.92369 25.9216 9.8279C28.4054 9.66825 30.0371 9.63217 30.8167 9.71966C31.9958 9.86748 33.1152 10.1567 34.1749 10.5874C35.2518 11.017 36.2197 11.6256 37.0787 12.4132C37.9538 13.1826 38.6846 14.116 39.2712 15.2136C39.5065 15.6628 39.6406 16.1444 39.6736 16.6583C39.797 18.5768 38.8954 21.0084 36.9691 23.9531C35.0598 26.8967 33.1103 29.4816 31.1206 31.7079C29.148 33.9332 27.6684 35.5333 26.6819 36.5083L32.349 52.4242L25.9292 57.7131L11.9703 24.7859C11.9361 24.7881 11.7838 24.9613 11.5135 25.3055C11.2432 25.6496 10.8854 26.1027 10.4399 26.6645C10.0104 27.2081 9.73956 27.5437 9.62736 27.6713C9.57598 27.6746 9.38101 27.3174 9.04246 26.5995C8.72105 25.8806 8.27869 24.8856 7.71538 23.6146C7.1681 22.3253 6.55207 20.9029 5.86727 19.3473C5.16424 17.7756 4.69673 16.7909 4.46475 16.393ZM21.5481 22.4674L24.1422 29.9118C25.1349 28.7644 26.3592 27.2065 27.8151 25.2381C29.271 23.2697 29.972 21.8658 29.918 21.0264C29.8971 20.701 29.748 20.5214 29.4706 20.4876C28.6887 20.3658 27.921 20.3292 27.1673 20.3776C24.9062 20.523 23.0331 21.2196 21.5481 22.4674Z" stroke="#395BA7" stroke-width="4" mask="url(#path-2-outside-2)"/>
<path d="M57.8371 7.3025L68.4588 3.09409L68.3242 9.89577L74.041 4.05513L81.0566 10.1478L70.5826 24.7109L91.494 41.4512L91.8271 49.7765L70.4927 37.6332L70.8096 47.8253L60.9351 47.8165L59.7819 11.7597L56.72 12.3837L57.8371 7.3025Z" stroke="#395BA7" stroke-width="4" mask="url(#path-2-outside-2)"/>
<path d="M101.722 12.2578L111.949 12.2956L114.347 16.8942L117.159 10.9593L123.77 11.2609L129.003 48.0811L117.045 46.0495L115.728 33.5222L113.025 37.9261L110.225 31.9475L108.448 42.3637L96.6991 42.3845L101.722 12.2578Z" stroke="#395BA7" stroke-width="4" mask="url(#path-2-outside-2)"/>
<path d="M149.803 11.9795L153.279 25.2997L153.6 13.5502L165.465 15.48L160.558 58.5353L153.426 58.154L148.683 36.8596L146.791 53.6897L137.667 52.7353L141.045 15.8551L137.843 14.668L138.282 9.7804L149.803 11.9795Z" stroke="#395BA7" stroke-width="4" mask="url(#path-2-outside-2)"/>
<path d="M45.272 52.082L37.5306 52.5111L37.1186 34.0932L34.5782 34.6596L35.4193 30.4371L44.1391 26.781L45.272 52.082ZM39.6419 16.379C40.4543 16.379 41.1524 16.5163 41.736 16.791C42.331 17.0542 42.8174 17.3803 43.195 17.7694C43.5726 18.147 43.8301 18.4789 43.9674 18.7649C44.1048 19.0739 44.1734 19.4115 44.1734 19.7777C44.1734 20.3384 44.0533 20.9106 43.8129 21.4942C43.5726 22.0663 43.2808 22.5584 42.9375 22.9703C42.5942 23.3823 42.2681 23.6226 41.9591 23.6913C41.3641 23.7828 40.9178 23.8286 40.6203 23.8286C39.865 23.8286 39.207 23.697 38.6463 23.4338C38.0856 23.1706 37.6393 22.7873 37.3075 22.2838C36.9756 21.7802 36.7696 21.1909 36.6895 20.5158C36.6895 19.5431 36.9241 18.6333 37.3933 17.7865C37.8739 16.9397 38.6234 16.4706 39.6419 16.379Z" stroke="#395BA7" stroke-width="4" mask="url(#path-2-outside-2)"/>
<path d="M61.1037 25.5336C61.8361 26.0028 62.4941 26.6551 63.0777 27.4904C63.6727 28.3144 64.1305 29.081 64.4509 29.7905C64.7713 30.4886 64.983 30.9921 65.086 31.301L58.7178 32.7086C58.6148 32.1364 58.3116 31.7588 57.8081 31.5757C57.3046 31.3926 56.7782 31.301 56.2289 31.301C53.3223 31.5757 51.869 33.3093 51.869 36.502C51.9491 39.031 52.7444 40.4385 54.2549 40.7246C54.9758 40.7246 55.6281 40.5472 56.2117 40.1925C56.7953 39.8377 57.2931 39.3685 57.7051 38.7849C58.1285 38.1899 58.4775 37.5262 58.7521 36.7938L65.1203 38.0812C65.0516 38.31 64.8857 38.7678 64.6225 39.4544C64.325 40.2211 63.627 41.2452 62.5284 42.5269C61.4413 43.8085 60.2283 44.7068 58.8894 45.2218C57.2759 45.8512 55.6739 46.1658 54.0833 46.1658C51.5429 46.1658 49.2885 45.3362 47.3203 43.6769C46.4277 42.8988 45.7812 41.9948 45.3807 40.9649C44.9687 39.935 44.7627 38.8479 44.7627 37.7035C44.7627 36.5134 44.9287 35.3405 45.2605 34.1847C45.5924 33.029 45.9986 31.9762 46.4792 31.0264C47.1086 29.7905 47.8009 28.7378 48.5562 27.8681C49.3114 26.9869 50.101 26.2717 50.9249 25.7225C51.7603 25.1617 52.6128 24.7498 53.4825 24.4866C54.3522 24.2234 55.2276 24.0918 56.1087 24.0918C57.9168 24.0918 59.5818 24.5724 61.1037 25.5336Z" stroke="#395BA7" stroke-width="4" mask="url(#path-2-outside-2)"/>
<path d="M96.2288 17.8152C97.0413 18.25 97.6993 18.8393 98.2028 19.5831C98.7177 20.3155 99.0896 21.1451 99.3185 22.0721C99.5588 22.9875 99.6789 23.943 99.6789 24.9386C99.6789 25.7625 99.6103 26.5578 99.473 27.3245C99.3471 28.0912 99.1697 28.795 98.9408 29.4358C98.712 30.0766 98.4431 30.6202 98.1341 31.0665C97.4132 32.1421 96.6408 33.069 95.8168 33.8472C94.9929 34.6253 94.1519 35.2547 93.2936 35.7353C92.4354 36.2045 91.5828 36.5478 90.736 36.7652C89.9007 36.9941 89.071 37.1085 88.2471 37.1085C87.2745 37.1085 86.3475 36.954 85.4664 36.645C84.5967 36.3475 83.8529 35.9527 83.235 35.4607C82.2165 34.6139 81.4212 33.4753 80.8491 32.0449C80.2769 30.603 79.9908 29.081 79.9908 27.479C79.9908 24.7212 80.7861 22.4955 82.3767 20.8018C83.7385 19.3486 85.146 18.2557 86.5993 17.5234C88.0526 16.7795 89.5402 16.4076 91.0622 16.4076C91.9548 16.4076 92.813 16.5221 93.6369 16.7509C94.4608 16.9684 95.3248 17.3231 96.2288 17.8152ZM95.2161 20.6989C95.0215 21.5685 94.5981 22.3352 93.9459 22.999C93.3051 23.6627 92.6757 23.9945 92.0577 23.9945C91.7488 23.9945 91.4741 23.9144 91.2338 23.7542C90.8905 23.4796 90.7189 22.999 90.7189 22.3124C90.7189 21.786 90.8905 21.2653 91.2338 20.7504C91.5886 20.2354 92.1436 19.8292 92.8988 19.5316C92.1436 19.5316 91.4112 19.6747 90.7017 19.9608C90.0037 20.2468 89.4029 20.6188 88.8994 21.0765C88.3959 21.5228 87.9897 22.032 87.6807 22.6042C87.3832 23.1649 87.2344 23.7313 87.2344 24.3035C87.2344 25.3677 87.7265 26.2145 88.7106 26.8439C89.626 27.4275 90.4957 27.7193 91.3196 27.7193C92.1321 27.7193 92.853 27.4504 93.4824 26.9126C94.1118 26.3633 94.5924 25.6652 94.9243 24.8184C95.2561 23.9602 95.4221 23.1134 95.4221 22.278C95.4221 21.7059 95.3534 21.1795 95.2161 20.6989Z" stroke="#395BA7" stroke-width="4" mask="url(#path-2-outside-2)"/>
<path d="M139.439 27.336C140.251 27.7708 140.909 28.3601 141.413 29.1039C141.927 29.8363 142.299 30.6659 142.528 31.5928C142.769 32.5083 142.889 33.4638 142.889 34.4594C142.889 35.2833 142.82 36.0786 142.683 36.8453C142.557 37.612 142.379 38.3158 142.151 38.9566C141.922 39.5974 141.653 40.141 141.344 40.5872C140.623 41.6629 139.851 42.5898 139.027 43.368C138.203 44.1461 137.362 44.7755 136.503 45.2561C135.645 45.7253 134.793 46.0686 133.946 46.286C133.11 46.5149 132.281 46.6293 131.457 46.6293C130.484 46.6293 129.557 46.4748 128.676 46.1658C127.806 45.8683 127.063 45.4735 126.445 44.9815C125.426 44.1347 124.631 42.9961 124.059 41.5656C123.487 40.1238 123.201 38.6018 123.201 36.9998C123.201 34.242 123.996 32.0162 125.586 30.3226C126.948 28.8693 128.356 27.7765 129.809 27.0441C131.262 26.3003 132.75 25.9284 134.272 25.9284C135.164 25.9284 136.023 26.0429 136.847 26.2717C137.671 26.4891 138.535 26.8439 139.439 27.336ZM138.426 30.2197C138.231 31.0893 137.808 31.856 137.156 32.5197C136.515 33.1835 135.885 33.5153 135.267 33.5153C134.959 33.5153 134.684 33.4352 134.444 33.275C134.1 33.0004 133.929 32.5197 133.929 31.8332C133.929 31.3068 134.1 30.7861 134.444 30.2711C134.798 29.7562 135.353 29.35 136.109 29.0524C135.353 29.0524 134.621 29.1955 133.911 29.4816C133.213 29.7676 132.613 30.1396 132.109 30.5973C131.606 31.0436 131.199 31.5528 130.89 32.125C130.593 32.6857 130.444 33.2521 130.444 33.8243C130.444 34.8885 130.936 35.7353 131.92 36.3647C132.836 36.9483 133.705 37.2401 134.529 37.2401C135.342 37.2401 136.063 36.9712 136.692 36.4333C137.322 35.8841 137.802 35.186 138.134 34.3392C138.466 33.481 138.632 32.6342 138.632 31.7988C138.632 31.2267 138.563 30.7003 138.426 30.2197Z" stroke="#395BA7" stroke-width="4" mask="url(#path-2-outside-2)"/>
<path d="M90.7207 13.3273L89.249 11.6622L98.237 1.98411L101.899 7.11069L90.7207 13.3273Z" fill="#395BA7" stroke="#395BA7" stroke-width="2"/>
<path d="M92.1854 13.3266L90.7137 11.6616L99.7018 1.98344L103.364 7.11002L92.1854 13.3266Z" fill="#FFCC01" stroke="#395BA7" stroke-width="2"/>
</svg>
