<svg width="260" height="260" viewBox="0 0 260 260" fill="none" xmlns="http://www.w3.org/2000/svg">
<path d="M129.776 259.552C201.449 259.552 259.552 201.449 259.552 129.776C259.552 58.1027 201.449 0 129.776 0C58.1027 0 0 58.1027 0 129.776C0 201.449 58.1027 259.552 129.776 259.552Z" fill="black"/>
<path fill-rule="evenodd" clip-rule="evenodd" d="M176.963 139.436C172.49 161.402 153.063 177.932 129.776 177.932C106.489 177.932 87.0623 161.402 82.5892 139.436H15.6605C20.5662 198.164 69.7799 244.3 129.776 244.3C189.772 244.3 238.986 198.164 243.892 139.436H176.963Z" fill="white"/>
<path fill-rule="evenodd" clip-rule="evenodd" d="M129.775 96.0781C111.165 96.0781 96.0787 111.165 96.0787 129.776C96.0787 148.386 111.165 163.473 129.775 163.473C148.386 163.473 163.472 148.386 163.472 129.776C163.472 111.165 148.386 96.0781 129.775 96.0781ZM129.776 146.4C120.594 146.4 113.152 138.957 113.152 129.776C113.152 120.594 120.594 113.152 129.776 113.152C138.957 113.152 146.4 120.594 146.4 129.776C146.4 138.957 138.957 146.4 129.776 146.4Z" fill="white"/>
<path fill-rule="evenodd" clip-rule="evenodd" d="M129.776 81.6195C153.063 81.6195 172.49 98.1497 176.963 120.116H243.892C238.986 61.3877 189.772 15.2512 129.776 15.2512C69.7802 15.2512 20.5665 61.3877 15.6604 120.116H82.5891C87.0623 98.1497 106.488 81.6195 129.776 81.6195Z" fill="#ED1C24"/>
</svg>
